HIERARCHY
ROOT Hips
{
    OFFSET 0.000000 0.000000 0.000000
    CHANNELS 6 Xposition Yposition Zposition Zrotation Xrotation Yrotation
    JOINT Spine
    {
        OFFSET -0.000000 7.236184 0.000000
        CHANNELS 3 Zrotation Xrotation Yrotation
        JOINT Spine1
        {
            OFFSET -0.000000 20.420147 0.000000
            CHANNELS 3 Zrotation Xrotation Yrotation
            JOINT Neck
            {
                OFFSET -0.000000 20.336288 1.848754
                CHANNELS 3 Zrotation Xrotation Yrotation
                JOINT Head
                {
                    OFFSET -0.000000 12.354461 -1.764923
                    CHANNELS 3 Zrotation Xrotation Yrotation
                    End Site
                    {
                        OFFSET -0.000000 22.061537 0.000000
                    }
                }
            }
            JOINT LeftShoulder
            {
                OFFSET 3.573296 18.396038 -0.314103
                CHANNELS 3 Zrotation Xrotation Yrotation
                JOINT LeftArm
                {
                    OFFSET 10.880760 0.000000 0.000000
                    CHANNELS 3 Zrotation Xrotation Yrotation
                    JOINT LeftForeArm
                    {
                        OFFSET 27.185530 0.000000 0.000000
                        CHANNELS 3 Zrotation Xrotation Yrotation
                        JOINT LeftHand
                        {
                            OFFSET 27.825975 0.000000 0.000000
                            CHANNELS 3 Zrotation Xrotation Yrotation
                            End Site
                            {
                                OFFSET 13.236923 0.000000 0.000000
                            }
                        }
                    }
                }
            }
            JOINT RightShoulder
            {
                OFFSET -3.474926 18.396038 -0.314103
                CHANNELS 3 Zrotation Xrotation Yrotation
                JOINT RightArm
                {
                    OFFSET -10.880760 0.000000 0.000000
                    CHANNELS 3 Zrotation Xrotation Yrotation
                    JOINT RightForeArm
                    {
                        OFFSET -27.185530 0.000000 0.000000
                        CHANNELS 3 Zrotation Xrotation Yrotation
                        JOINT RightHand
                        {
                            OFFSET -27.825975 0.000000 0.000000
                            CHANNELS 3 Zrotation Xrotation Yrotation
                            End Site
                            {
                                OFFSET -13.236923 0.000000 0.000000
                            }
                        }
                    }
                }
            }
        }
    }
    JOINT LeftUpLeg
    {
        OFFSET 8.824615 0.000000 0.000000
        CHANNELS 3 Zrotation Xrotation Yrotation
        JOINT LeftLeg
        {
            OFFSET -0.000000 -35.111282 0.000000
            CHANNELS 3 Zrotation Xrotation Yrotation
            JOINT LeftFoot
            {
                OFFSET -0.000000 -42.324711 0.000000
                CHANNELS 3 Zrotation Xrotation Yrotation
                JOINT LeftToeBase
                {
                    OFFSET -0.000000 -5.735999 13.236923
                    CHANNELS 3 Zrotation Xrotation Yrotation
                    End Site
                    {
                        OFFSET -0.000000 0.000000 3.529846
                    }
                }
            }
        }
    }
    JOINT RightUpLeg
    {
        OFFSET -8.824615 0.000000 0.000000
        CHANNELS 3 Zrotation Xrotation Yrotation
        JOINT RightLeg
        {
            OFFSET -0.000000 -35.111282 0.000000
            CHANNELS 3 Zrotation Xrotation Yrotation
            JOINT RightFoot
            {
                OFFSET -0.000000 -42.324711 0.000000
                CHANNELS 3 Zrotation Xrotation Yrotation
                JOINT RightToeBase
                {
                    OFFSET -0.000000 -5.735999 13.236923
                    CHANNELS 3 Zrotation Xrotation Yrotation
                    End Site
                    {
                        OFFSET -0.000000 0.000000 3.529846
                    }
                }
            }
        }
    }
}
MOTION
Frames:    4
Frame Time:    0.008333
-23.063404    81.637817    101.401199    -1.366033    -9.633186    -175.980728    -1.894283    -8.608609    0.524330    0.062288    4.444253    0.664591    1.556582    1.841312    -2.827922    5.947305    -13.756004    -1.606516    -0.990809    17.193787    -1.151294    -44.795322    45.717461    -42.361343    3.388912    -11.527949    -38.022476    3.898322    -10.586260    -6.121397    7.919834    17.311470    -4.822725    24.353399    51.293926    53.177681    -11.523957    -11.382205    50.472630    -21.098362    -7.099707    5.978094    -2.079087    -20.018398    -7.729790    -1.104637    25.724020    2.619167    -3.355299    -11.710564    -11.032587    -1.461677    -3.345950    1.630286    -2.400476    -18.804131    5.739889    6.962321    25.535152    -0.802177    -1.301858    -9.135648    -16.221340    -0.614981    -4.470367    0.669409    
-23.040232    81.553421    101.512238    -1.501214    -9.791958    -176.199936    -1.954975    -8.358175    0.569732    -0.026142    4.292158    0.713646    1.564761    1.402660    -2.769470    5.950569    -13.776113    -1.551037    -1.078119    17.194014    -1.090328    -45.443958    45.202122    -41.801655    3.367432    -11.713287    -37.421326    3.285017    -10.784144    -6.741867    8.009194    17.370037    -4.811815    24.458004    51.279602    53.104595    -11.819562    -11.203711    50.065769    -22.085829    -6.950107    6.322611    -2.104578    -20.541857    -7.478960    -1.276314    26.313345    3.508436    -3.552680    -11.891387    -11.253555    -0.971543    -3.027171    1.082962    -2.745424    -19.985067    5.883924    7.640997    27.055311    -1.502884    -0.915938    -8.989176    -15.809620    -0.635303    -4.888938    0.691963    
-23.013138    81.463577    101.627792    -1.645055    -9.954367    -176.436874    -2.023841    -8.110380    0.616413    -0.117941    4.156317    0.764264    1.569409    0.953536    -2.707989    5.962665    -13.831658    -1.488037    -1.175361    17.191410    -1.026035    -46.127285    44.583263    -41.193268    3.396397    -11.839457    -36.786285    2.972295    -10.911430    -7.049914    8.112241    17.435766    -4.804692    24.711918    51.182621    52.898354    -12.056928    -11.024038    49.558189    -23.021816    -6.843611    6.660813    -2.106198    -21.074820    -7.203639    -1.472283    26.888094    4.293148    -3.745466    -12.047638    -11.491155    -0.580399    -2.803069    0.646688    -3.129144    -21.209131    5.950984    8.354988    28.621002    -2.224207    -0.468484    -8.794674    -15.329975    -0.660772    -5.312498    0.720162    
-22.983673    81.374794    101.738312    -1.786966    -10.106809    -176.673492    -2.094878    -7.883925    0.660864    -0.206565    4.047866    0.812566    1.569703    0.532163    -2.647984    5.981949    -13.921490    -1.421991    -1.275168    17.186239    -0.961475    -46.782944    43.903419    -40.590862    3.468243    -11.901887    -36.148514    2.988487    -10.972226    -7.036005    8.221430    17.503632    -4.802899    25.099752    51.005787    52.569122    -12.220184    -10.859136    48.976936    -23.854538    -6.792474    6.976027    -2.082806    -21.575489    -6.918795    -1.679634    27.411243    4.951764    -3.921455    -12.175344    -11.727229    -0.283923    -2.661058    0.316265    -3.525056    -22.385939    5.921847    9.036683    30.124514    -2.898532    0.009155    -8.569536    -14.814582    -0.687725    -5.706266    0.749985    
